<svg xmlns="http://www.w3.org/2000/svg" viewBox="0 0 761.4 97.5" role="img" aria-hidden="true" class="ue-c-logo--elmundo" fill="var(--ue-c-logo-elmundo-fill, #010101)">
<path d="M77.8,60.9h4.7l-2,24.6c-0.2,2.8-0.4,6.2-0.4,9.3H0v-4.2l6.6-2.2c2.3-0.7,4-2,4-4.7V13.8c0-2.6-1.7-3.8-4-4.7L0,6.9V2.7
        h78.8c0,3.2,0,6.2,0.2,9.2l1.6,18.8h-4.7l-9.6-17.2c-2.5-4.5-5.4-5.6-11.2-5.6H33.3v35.4h12.9c5.4,0,7.5-2.5,9-5.6l5.8-11.4h4.2
        v39.2h-4.2L55.1,54c-1.6-3.1-3.6-5.6-9-5.6H33.3v41.3h20.3c6.5,0,10.7-1.7,14.1-8.5L77.8,60.9z"></path>
<path d="M159.9,60.9h4.7l-2,24.6c-0.2,2.7-0.4,6.2-0.4,9.3H89.9v-4.2l5.4-2.2c2-0.7,2.6-2,2.6-4.2V13.3c0-2-0.7-3.3-2.6-4.2
        l-5.4-2.2V2.7h41.3v4.2l-6.6,2.2c-2.3,0.7-4,1.7-4,4.2v76.2h15.2c6.5,0,10.7-1.7,14.1-8.5L159.9,60.9z"></path>
<path fill="var(--ue-c-logo-elmundo-ball-fill, #00568C)" d="M170.3,45.8c0.4-7.2,2.3-13.9,5.4-19.9h40v19.9H170.3z M215.6,51.7v19.9h-40c-3.1-6-5.1-12.7-5.4-19.9H215.6z M179.4,20
        c8.3-11.4,21.2-19.4,36.3-20v20H179.4z M215.6,77.5v20c-15-0.7-28-8.5-36.3-20H215.6z M221.6,20V0c15,0.7,28,8.5,36.3,20H221.6z
            M221.6,45.8V25.9h40c3.1,6,5.1,12.7,5.4,19.9H221.6z M267,51.7c-0.4,7.2-2.3,13.9-5.4,19.9h-40V51.7H267z M257.8,77.5
        c-8.3,11.4-21.2,19.4-36.3,20v-20H257.8z"></path>
<path d="M386.4,2.7v4.2l-5.6,2c-2.3,0.7-2.9,2.3-2.9,4.4v70.9c0,2,0.7,3.3,2.6,4.2l5.4,2.2v4.2h-38.2v-4.2l5.3-2.2
        c2-0.7,2.6-2,2.6-4.2V14.3h-0.2l-29.2,80.5h-4.9l-31.7-78.2h-0.2v57.1c0,8.7,0.9,13.4,9.2,15.4l6,1.4v4.2h-33.3v-4.2l4-1.1
        c6.9-2,7.8-6.9,7.8-15.6V13.9c0-2-0.7-3.8-4.2-5.1l-4.4-1.8V2.7h35.5c0.4,3.6,1.4,7.4,2.5,10l19.2,49.5h0.2l16.7-46.3
        c1.1-3.3,2.6-9,2.6-13.3L386.4,2.7L386.4,2.7z"></path>
<path d="M451.4,6.9V2.7h28.3v4.2L476.3,8c-4.2,1.3-5.6,3.8-5.6,13v43.3c0,23.9-16.9,32.1-34.6,32.1c-20.3,0-36.1-7.4-36.1-31.5
        V13.3c0-2-0.7-3.3-2.6-4.2l-5.4-2.2V2.7h38.6v4.2l-5.3,2.2c-2,0.7-2.6,2-2.6,4.2v51.5c0,15.8,7.5,22.5,20.7,22.5
        c14.5,0,20.9-8.9,20.9-24.3V21c0-9.2-1.3-11.4-6.9-12.7L451.4,6.9z"></path>
<path d="M540.4,6.9V2.7H574v4.2l-4,1.1c-7.5,2.2-7.8,6.6-7.8,15.2v71.5h-10.7l-51.6-78.9h-0.2v57.9c0,8.7,1.1,12.9,9.4,15l5.8,1.4
        v4.7h-33.7v-4.7l4.2-1.1c6.9-2,7.8-6.6,7.8-15.2V13.6c-0.2-2-1.4-4.2-6.5-5.6l-4-1.1V2.7h36.8c0.7,1.6,2.5,4.4,4,6.7l31.9,49.3
        V23.4c0-8.7-1.1-13-9.4-15L540.4,6.9z"></path>
<path d="M612.8,2.7c33.8,0,50,20,50,46.1s-16.3,46.1-50,46.1h-35.7v-4.2l5.4-2.2c2-0.7,2.6-2,2.6-4.2V13.3c0-2-0.7-3.3-2.6-4.2
        l-5.4-2.2V2.7H612.8z M607.8,89.8h6c22.2,0,25.7-18.8,25.7-41s-3.5-41-25.7-41h-6V89.8z"></path>
<path d="M715.8,0.9c22.1,0,45.5,16.1,45.5,47.9c0,31.7-23.4,47.9-45.5,47.9s-45.3-16.1-45.3-47.9S693.8,0.9,715.8,0.9z M715.8,91.4
        c15.2,0,21.9-14.5,21.9-42.6S731,6.1,715.8,6.1c-15.1,0-21.8,14.5-21.8,42.6C694.1,76.9,700.8,91.4,715.8,91.4z"></path>
</svg>